<svg width="18" height="18" viewBox="0 0 18 18" fill="none" xmlns="http://www.w3.org/2000/svg">
<path fill-rule="evenodd" clip-rule="evenodd" d="M4.875 8.625C3.66923 8.625 2.55505 7.98173 1.95216 6.9375C1.34928 5.89327 1.34928 4.60673 1.95216 3.5625C2.55505 2.51827 3.66923 1.875 4.875 1.875C6.08077 1.875 7.19495 2.51827 7.79784 3.5625C8.40072 4.60673 8.40072 5.89327 7.79784 6.9375C7.19495 7.98173 6.08077 8.625 4.875 8.625ZM5.25 16.125C4.04423 16.125 2.93005 15.4817 2.32716 14.4375C1.72428 13.3933 1.72428 12.1067 2.32716 11.0625C2.93005 10.0183 4.04423 9.375 5.25 9.375C6.45577 9.375 7.56995 10.0183 8.17284 11.0625C8.77572 12.1067 8.77572 13.3933 8.17284 14.4375C7.56995 15.4817 6.45577 16.125 5.25 16.125ZM12.75 8.625C11.5442 8.625 10.43 7.98173 9.82716 6.9375C9.22428 5.89327 9.22428 4.60673 9.82716 3.5625C10.43 2.51827 11.5442 1.875 12.75 1.875C13.9558 1.875 15.07 2.51827 15.6728 3.5625C16.2757 4.60673 16.2757 5.89327 15.6728 6.9375C15.07 7.98173 13.9558 8.625 12.75 8.625ZM12.75 16.125C11.5442 16.125 10.43 15.4817 9.82716 14.4375C9.22428 13.3933 9.22428 12.1067 9.82716 11.0625C10.43 10.0183 11.5442 9.375 12.75 9.375C13.9558 9.375 15.07 10.0183 15.6728 11.0625C16.2757 12.1067 16.2757 13.3933 15.6728 14.4375C15.07 15.4817 13.9558 16.125 12.75 16.125ZM4.87499 7.125C5.91053 7.125 6.74999 6.28554 6.74999 5.25001C6.75 4.21447 5.91054 3.37501 4.875 3.375C3.83947 3.375 3.00001 4.21446 3 5.24999C2.99999 6.28552 3.83945 7.12499 4.87499 7.125H4.87499ZM5.24999 14.625C6.28553 14.625 7.12499 13.7855 7.12499 12.75C7.125 11.7145 6.28554 10.875 5.25 10.875C4.21447 10.875 3.37501 11.7145 3.375 12.75C3.37499 13.7855 4.21445 14.625 5.24999 14.625H5.24999ZM12.75 7.125C13.7855 7.125 14.625 6.28554 14.625 5.25001C14.625 4.21447 13.7855 3.37501 12.75 3.375C11.7145 3.375 10.875 4.21446 10.875 5.24999C10.875 6.28552 11.7145 7.12499 12.75 7.125H12.75ZM12.75 14.625C13.7855 14.625 14.625 13.7855 14.625 12.75C14.625 11.7145 13.7855 10.875 12.75 10.875C11.7145 10.875 10.875 11.7145 10.875 12.75C10.875 13.7855 11.7145 14.625 12.75 14.625H12.75Z" fill="#6D7080"/>
</svg>
