<svg width="49" height="48" viewBox="0 0 49 48" fill="none" xmlns="http://www.w3.org/2000/svg">
<circle cx="24.3984" cy="24" r="24" fill="#299CDB" fill-opacity="0.176471"/>
<mask id="mask0_10_3056" style="mask-type:alpha" maskUnits="userSpaceOnUse" x="12" y="12" width="25" height="24">
<rect x="12.3984" y="12" width="24" height="24" fill="white"/>
</mask>
<g mask="url(#mask0_10_3056)">
<path fill-rule="evenodd" clip-rule="evenodd" d="M24.3984 14C18.8844 14 14.3984 18.486 14.3984 24C14.3984 29.514 18.8844 34 24.3984 34C29.9124 34 34.3984 29.514 34.3984 24C34.3984 18.486 29.9124 14 24.3984 14ZM24.3984 32C19.9874 32 16.3984 28.411 16.3984 24C16.3984 19.589 19.9874 16 24.3984 16C28.8094 16 32.3984 19.589 32.3984 24C32.3984 28.411 28.8094 32 24.3984 32Z" fill="#299CDB"/>
<path d="M25.3984 19H23.3984V24.414L26.6914 27.707L28.1054 26.293L25.3984 23.586V19Z" fill="#299CDB"/>
</g>
</svg>
