<svg width="19" height="18" viewBox="0 0 19 18" fill="none" xmlns="http://www.w3.org/2000/svg">
<path fill-rule="evenodd" clip-rule="evenodd" d="M9.69922 1.5C13.8415 1.5 17.1992 4.85775 17.1992 9C17.1992 13.1422 13.8415 16.5 9.69922 16.5C5.55697 16.5 2.19922 13.1423 2.19922 9C2.19922 4.85775 5.55697 1.5 9.69922 1.5ZM9.69922 3C6.38572 3 3.69922 5.6865 3.69922 9C3.69922 12.3135 6.38572 15 9.69922 15C13.0127 15 15.6992 12.3135 15.6992 9C15.6992 5.6865 13.0127 3 9.69922 3ZM9.69922 3.75C10.4627 3.75 11.188 3.91275 11.8427 4.206L10.6705 5.3775C10.3607 5.295 10.0352 5.25 9.69922 5.25C7.62847 5.25 5.94922 6.92925 5.94922 9C5.94922 10.035 6.36922 10.9725 7.04722 11.652L5.98672 12.7125L5.86972 12.5918C4.98922 11.6528 4.44922 10.389 4.44922 9C4.44922 6.1005 6.79972 3.75 9.69922 3.75ZM14.4931 6.85724C14.7856 7.51124 14.9491 8.23724 14.9491 8.99999C14.9491 10.4497 14.3611 11.7622 13.4116 12.7125L12.3511 11.652C13.0291 10.9725 13.4491 10.035 13.4491 8.99999C13.4491 8.66399 13.4048 8.33849 13.3216 8.02874L14.4931 6.85724ZM12.8807 4.75725L13.942 5.81775L11.149 8.61225C11.182 8.736 11.1992 8.86575 11.1992 9C11.1992 9.82875 10.528 10.5 9.69922 10.5C8.87047 10.5 8.19922 9.82875 8.19922 9C8.19922 8.17125 8.87047 7.5 9.69922 7.5C9.83347 7.5 9.96322 7.51725 10.087 7.55025L12.8815 4.75725L12.8807 4.75725Z" fill="#6D7080"/>
</svg>
