<svg width="49" height="48" viewBox="0 0 49 48" fill="none" xmlns="http://www.w3.org/2000/svg">
<circle cx="24.3984" cy="24" r="24" fill="#299CDB" fill-opacity="0.176471"/>
<mask id="mask0_10_3076" style="mask-type:alpha" maskUnits="userSpaceOnUse" x="12" y="12" width="25" height="24">
<rect x="12.3984" y="12" width="24" height="24" fill="white"/>
</mask>
<g mask="url(#mask0_10_3076)">
<path d="M29.3684 16.757C29.2614 16.326 28.8814 16.017 28.4364 16.001C28.0044 15.976 27.5904 16.262 27.4504 16.684L24.2644 26.238L21.3124 19.594C21.1494 19.227 20.7704 18.986 20.3794 19C19.9774 19.008 19.6184 19.255 19.4694 19.628L17.7214 24H14.3984V26H17.7214C18.5444 26 19.2734 25.506 19.5774 24.743L20.4464 22.571L23.4834 29.406C23.6454 29.769 24.0044 30 24.3984 30C24.4144 30 24.4304 30 24.4464 29.999C24.8594 29.978 25.2174 29.708 25.3464 29.316L28.2604 20.574L29.2394 24.485C29.4614 25.377 30.2594 26 31.1794 26H34.3984V24H31.1784L29.3684 16.757Z" fill="#299CDB"/>
</g>
</svg>
