<svg width="40" height="40" viewBox="0 0 40 40" fill="none" xmlns="http://www.w3.org/2000/svg">
<path fill-rule="evenodd" clip-rule="evenodd" d="M5.26843 7.44833C9.27906 3.43699 15.7049 3.19857 20.0018 6.90167C24.2944 3.20507 30.7103 3.43987 34.7212 7.44035C38.7322 11.4408 38.9838 17.856 35.2984 22.1583L22.3568 35.1417C21.1234 36.3754 19.1474 36.4496 17.8251 35.3117L17.6418 35.1433L4.70177 22.1583C1.01857 17.86 1.26548 11.4506 5.26844 7.44833L5.26843 7.44833ZM7.62468 9.80499C4.79362 12.6368 4.68649 17.1932 7.38135 20.155L7.62468 20.4117L19.9997 32.7867L28.838 23.9467L22.9463 18.055L21.1797 19.8217C19.9167 21.0852 18.0757 21.579 16.3499 21.117C14.6242 20.655 13.2761 19.3075 12.8133 17.582C12.3505 15.8565 12.8434 14.0152 14.1063 12.7517L17.6097 9.24666C14.7296 6.94814 10.6067 7.08164 7.88135 9.56166L7.62468 9.80499L7.62468 9.80499ZM21.7685 14.5183C22.4193 13.8677 23.4743 13.8677 24.1251 14.5183L31.1951 21.5883L32.3751 20.4117C35.2573 17.5316 35.3128 12.8773 32.5002 9.92924C29.6876 6.98121 25.0358 6.81801 22.0235 9.56166L21.7685 9.80499L16.4651 15.1083C15.8672 15.7059 15.8113 16.6565 16.3351 17.32L16.4651 17.465C17.0627 18.063 18.0133 18.1188 18.6768 17.595L18.8218 17.465L21.7685 14.5183Z" fill="#9499AD"/>
</svg>
