<svg width="49" height="48" viewBox="0 0 49 48" fill="none" xmlns="http://www.w3.org/2000/svg">
<circle cx="24.3984" cy="24" r="24" fill="#299CDB" fill-opacity="0.176471"/>
<mask id="mask0_10_3093" style="mask-type:alpha" maskUnits="userSpaceOnUse" x="12" y="12" width="25" height="24">
<rect x="12.3984" y="12" width="24" height="24" fill="white"/>
</mask>
<g mask="url(#mask0_10_3093)">
<path fill-rule="evenodd" clip-rule="evenodd" d="M24.3984 14C21.6414 14 19.3984 16.243 19.3984 19C19.3984 21.757 21.6414 24 24.3984 24C27.1554 24 29.3984 21.757 29.3984 19C29.3984 16.243 27.1554 14 24.3984 14ZM24.3984 22C22.7444 22 21.3984 20.654 21.3984 19C21.3984 17.346 22.7444 16 24.3984 16C26.0524 16 27.3984 17.346 27.3984 19C27.3984 20.654 26.0524 22 24.3984 22ZM33.3984 33V32C33.3984 28.141 30.2574 25 26.3984 25H22.3984C18.5384 25 15.3984 28.141 15.3984 32V33H17.3984V32C17.3984 29.243 19.6414 27 22.3984 27H26.3984C29.1554 27 31.3984 29.243 31.3984 32V33H33.3984Z" fill="#299CDB"/>
</g>
</svg>
