<svg width="40" height="40" viewBox="0 0 40 40" fill="none" xmlns="http://www.w3.org/2000/svg">
<path fill-rule="evenodd" clip-rule="evenodd" d="M4.79984 30.09C7.09349 19.9413 11.9942 10.5661 19.0182 2.89005C19.2707 2.61533 19.6267 2.45899 19.9998 2.45898C20.373 2.45898 20.729 2.61533 20.9815 2.89004C21.2582 3.19004 21.4882 3.44337 21.6698 3.64837C28.3308 11.1848 32.9842 20.279 35.1998 30.09C31.6315 30.8417 27.9665 31.335 24.2265 31.5467L20.7448 38.51C20.6035 38.792 20.3152 38.97 19.9998 38.97C19.6845 38.97 19.3961 38.792 19.2548 38.51L15.7732 31.5467C12.0839 31.3382 8.41569 30.8512 4.7998 30.09L4.79984 30.09ZM15.963 28.2184L17.8913 28.3284L19.9996 32.545L22.108 28.3284L24.0363 28.2184C26.3959 28.0848 28.7472 27.8323 31.0813 27.4617C28.8701 19.8815 25.0951 12.8488 19.9997 6.81671C14.9042 12.8488 11.1292 19.8815 8.91797 27.4617C11.243 27.8317 13.593 28.085 15.963 28.2184ZM20 25C18.2137 25 16.563 24.047 15.6699 22.5C14.7767 20.953 14.7767 19.047 15.6699 17.5C16.563 15.953 18.2137 15 20 15C21.7863 15 23.437 15.953 24.3301 17.5C25.2233 19.047 25.2233 20.953 24.3301 22.5C23.437 24.047 21.7863 25 20 25ZM19.9997 21.6667C20.9201 21.6667 21.6663 20.9205 21.6663 20C21.6663 19.0796 20.9202 18.3334 19.9997 18.3334C19.0792 18.3334 18.333 19.0796 18.333 20C18.333 20.9205 19.0792 21.6667 19.9997 21.6667H19.9997Z" fill="#9499AD"/>
</svg>
