<svg width="139" height="40" viewBox="0 0 139 40" fill="none" xmlns="http://www.w3.org/2000/svg">
<path d="M16.2131 7.82349V2.82349H0.416504V37.1764H16.2131V32.1764C12.9772 32.1764 9.87372 30.8935 7.58562 28.61C5.29747 26.3264 4.012 23.2294 4.012 20C4.012 16.7706 5.29747 13.6734 7.58562 11.3899C9.87372 9.10637 12.9772 7.82349 16.2131 7.82349Z" fill="#FCBC67"/>
<path d="M16.2134 7.82349V32.1764C19.4493 32.1764 22.5528 30.8935 24.8409 28.61C27.1291 26.3264 28.4145 23.2294 28.4145 20C28.4145 16.7706 27.1291 13.6734 24.8409 11.3899C22.5528 9.10637 19.4493 7.82349 16.2134 7.82349Z" fill="#FCBC67"/>
<path d="M36.96 17.5V6.3H39.36V10.796H43.808V6.3H46.208V17.5H43.808V12.876H39.36V17.5H36.96ZM57.2203 7.82C58.2549 8.89733 58.7723 10.2573 58.7723 11.9C58.7723 13.5427 58.2549 14.9027 57.2203 15.98C56.1856 17.0573 54.8523 17.596 53.2203 17.596C51.5883 17.596 50.2549 17.0573 49.2203 15.98C48.1856 14.9027 47.6683 13.5427 47.6683 11.9C47.6683 10.2573 48.1856 8.89733 49.2203 7.82C50.2549 6.74267 51.5883 6.204 53.2203 6.204C54.8523 6.204 56.1856 6.74267 57.2203 7.82ZM50.9643 9.276C50.3989 9.95867 50.1163 10.8333 50.1163 11.9C50.1163 12.9667 50.3989 13.8467 50.9643 14.54C51.5403 15.2227 52.2923 15.564 53.2203 15.564C54.1483 15.564 54.8949 15.2227 55.4603 14.54C56.0256 13.8467 56.3083 12.9667 56.3083 11.9C56.3083 10.8333 56.0256 9.95867 55.4603 9.276C54.8949 8.58267 54.1483 8.236 53.2203 8.236C52.2923 8.236 51.5403 8.58267 50.9643 9.276ZM64.3056 17.5H60.2256V6.3H64.3056C66.0443 6.3 67.447 6.81733 68.5136 7.852C69.5803 8.88667 70.1136 10.2307 70.1136 11.884C70.1136 13.5373 69.575 14.8867 68.4976 15.932C67.431 16.9773 66.0336 17.5 64.3056 17.5ZM62.6256 8.3V15.5H64.3056C65.3616 15.5 66.183 15.1693 66.7696 14.508C67.3563 13.8467 67.6496 12.972 67.6496 11.884C67.6496 10.796 67.3563 9.92667 66.7696 9.276C66.183 8.62533 65.3616 8.3 64.3056 8.3H62.6256ZM78.4174 17.5H71.5694V6.3H73.9694V15.436H78.4174V17.5ZM78.9584 15.1V13.196L83.9024 6.3H86.7024V13.18H88.2544V15.1H86.7024V17.5H84.4464V15.1H78.9584ZM84.4464 8.588L81.1664 13.18H84.4464V8.588ZM94.2931 17.596C92.6931 17.596 91.4025 17.0787 90.4211 16.044C89.4505 14.9987 88.9651 13.6173 88.9651 11.9C88.9651 10.172 89.4611 8.79067 90.4531 7.756C91.4558 6.72133 92.8105 6.204 94.5171 6.204C95.8611 6.204 96.9758 6.58267 97.8611 7.34C98.7465 8.08667 99.2638 9.068 99.4131 10.284H97.0131C96.8638 9.65467 96.5651 9.15867 96.1171 8.796C95.6798 8.42267 95.1251 8.236 94.4531 8.236C93.5251 8.236 92.7838 8.57733 92.2291 9.26C91.6851 9.932 91.4131 10.812 91.4131 11.9C91.4131 12.9987 91.6798 13.884 92.2131 14.556C92.7571 15.228 93.5038 15.564 94.4531 15.564C95.1465 15.564 95.7598 15.3773 96.2931 15.004C96.8265 14.62 97.1465 14.06 97.2531 13.324V13.18H94.4691V11.276H99.4771V17.5H97.7971L97.5571 16.156C96.8318 17.116 95.7438 17.596 94.2931 17.596ZM110.502 7.82C111.536 8.89733 112.054 10.2573 112.054 11.9C112.054 13.5427 111.536 14.9027 110.502 15.98C109.467 17.0573 108.134 17.596 106.502 17.596C104.87 17.596 103.536 17.0573 102.502 15.98C101.467 14.9027 100.95 13.5427 100.95 11.9C100.95 10.2573 101.467 8.89733 102.502 7.82C103.536 6.74267 104.87 6.204 106.502 6.204C108.134 6.204 109.467 6.74267 110.502 7.82ZM104.246 9.276C103.68 9.95867 103.398 10.8333 103.398 11.9C103.398 12.9667 103.68 13.8467 104.246 14.54C104.822 15.2227 105.574 15.564 106.502 15.564C107.43 15.564 108.176 15.2227 108.742 14.54C109.307 13.8467 109.59 12.9667 109.59 11.9C109.59 10.8333 109.307 9.95867 108.742 9.276C108.176 8.58267 107.43 8.236 106.502 8.236C105.574 8.236 104.822 8.58267 104.246 9.276ZM120.355 17.5H113.507V6.3H115.907V15.436H120.355V17.5ZM125.712 17.5H121.632V6.3H125.712C127.451 6.3 128.853 6.81733 129.92 7.852C130.987 8.88667 131.52 10.2307 131.52 11.884C131.52 13.5373 130.981 14.8867 129.904 15.932C128.837 16.9773 127.44 17.5 125.712 17.5ZM124.032 8.3V15.5H125.712C126.768 15.5 127.589 15.1693 128.176 14.508C128.763 13.8467 129.056 12.972 129.056 11.884C129.056 10.796 128.763 9.92667 128.176 9.276C127.589 8.62533 126.768 8.3 125.712 8.3H124.032ZM41.04 35.5H36.96V24.3H41.04C42.7787 24.3 44.1813 24.8173 45.248 25.852C46.3147 26.8867 46.848 28.2307 46.848 29.884C46.848 31.5373 46.3093 32.8867 45.232 33.932C44.1653 34.9773 42.768 35.5 41.04 35.5ZM39.36 26.3V33.5H41.04C42.096 33.5 42.9173 33.1693 43.504 32.508C44.0907 31.8467 44.384 30.972 44.384 29.884C44.384 28.796 44.0907 27.9267 43.504 27.276C42.9173 26.6253 42.096 26.3 41.04 26.3H39.36ZM48.3038 35.5V24.3H55.8238V26.364H50.7038V28.876H54.8638V30.844H50.7038V33.436H55.9998V35.5H48.3038ZM59.7964 35.5H57.4444V24.3H59.6204L64.3724 31.356V24.3H66.7404V35.5H64.5484L59.7964 28.444V35.5Z" fill="#1D2127"/>
<path d="M36.96 17.5H36.66V17.8H36.96V17.5ZM36.96 6.3V6H36.66V6.3H36.96ZM39.36 6.3H39.66V6H39.36V6.3ZM39.36 10.796H39.06V11.096H39.36V10.796ZM43.808 10.796V11.096H44.108V10.796H43.808ZM43.808 6.3V6H43.508V6.3H43.808ZM46.208 6.3H46.508V6H46.208V6.3ZM46.208 17.5V17.8H46.508V17.5H46.208ZM43.808 17.5H43.508V17.8H43.808V17.5ZM43.808 12.876H44.108V12.576H43.808V12.876ZM39.36 12.876V12.576H39.06V12.876H39.36ZM39.36 17.5V17.8H39.66V17.5H39.36ZM37.26 17.5V6.3H36.66V17.5H37.26ZM36.96 6.6H39.36V6H36.96V6.6ZM39.06 6.3V10.796H39.66V6.3H39.06ZM39.36 11.096H43.808V10.496H39.36V11.096ZM44.108 10.796V6.3H43.508V10.796H44.108ZM43.808 6.6H46.208V6H43.808V6.6ZM45.908 6.3V17.5H46.508V6.3H45.908ZM46.208 17.2H43.808V17.8H46.208V17.2ZM44.108 17.5V12.876H43.508V17.5H44.108ZM43.808 12.576H39.36V13.176H43.808V12.576ZM39.06 12.876V17.5H39.66V12.876H39.06ZM39.36 17.2H36.96V17.8H39.36V17.2ZM57.2203 15.98L57.0039 15.7722L57.2203 15.98ZM49.2203 15.98L49.4366 15.7722L49.4366 15.7722L49.2203 15.98ZM49.2203 7.82L49.4366 8.0278L49.4366 8.0278L49.2203 7.82ZM50.9643 9.276L50.7335 9.08429L50.7332 9.08466L50.9643 9.276ZM50.9643 14.54L50.7317 14.7296L50.735 14.7335L50.9643 14.54ZM55.4603 14.54L55.6913 14.7313L55.6928 14.7296L55.4603 14.54ZM55.4603 9.276L55.2277 9.46559L55.2292 9.46734L55.4603 9.276ZM57.0039 8.0278C57.9793 9.04346 58.4723 10.3264 58.4723 11.9H59.0723C59.0723 10.1883 58.5305 8.7512 57.4366 7.6122L57.0039 8.0278ZM58.4723 11.9C58.4723 13.4736 57.9793 14.7565 57.0039 15.7722L57.4366 16.1878C58.5305 15.0488 59.0723 13.6117 59.0723 11.9H58.4723ZM57.0039 15.7722C56.0313 16.7848 54.779 17.296 53.2203 17.296V17.896C54.9255 17.896 56.3398 17.3298 57.4366 16.1878L57.0039 15.7722ZM53.2203 17.296C51.6615 17.296 50.4092 16.7848 49.4366 15.7722L49.0039 16.1878C50.1007 17.3298 51.515 17.896 53.2203 17.896V17.296ZM49.4366 15.7722C48.4612 14.7565 47.9683 13.4736 47.9683 11.9H47.3683C47.3683 13.6117 47.91 15.0488 49.0039 16.1878L49.4366 15.7722ZM47.9683 11.9C47.9683 10.3264 48.4612 9.04346 49.4366 8.0278L49.0039 7.6122C47.91 8.7512 47.3683 10.1883 47.3683 11.9H47.9683ZM49.4366 8.0278C50.4092 7.01515 51.6615 6.504 53.2203 6.504V5.904C51.515 5.904 50.1007 6.47018 49.0039 7.6122L49.4366 8.0278ZM53.2203 6.504C54.779 6.504 56.0313 7.01515 57.0039 8.0278L57.4366 7.6122C56.3398 6.47018 54.9255 5.904 53.2203 5.904V6.504ZM50.7332 9.08466C50.1147 9.83151 49.8163 10.7783 49.8163 11.9H50.4163C50.4163 10.8884 50.6831 10.0858 51.1953 9.46734L50.7332 9.08466ZM49.8163 11.9C49.8163 13.0219 50.1147 13.9729 50.7317 14.7296L51.1968 14.3504C50.6831 13.7204 50.4163 12.9114 50.4163 11.9H49.8163ZM50.735 14.7335C51.3705 15.4866 52.2078 15.864 53.2203 15.864V15.264C52.3767 15.264 51.71 14.9587 51.1935 14.3465L50.735 14.7335ZM53.2203 15.864C54.2328 15.864 55.066 15.4865 55.6913 14.7313L55.2292 14.3487C54.7239 14.9589 54.0637 15.264 53.2203 15.264V15.864ZM55.6928 14.7296C56.3098 13.9729 56.6083 13.0219 56.6083 11.9H56.0083C56.0083 12.9114 55.7414 13.7204 55.2277 14.3504L55.6928 14.7296ZM56.6083 11.9C56.6083 10.7783 56.3098 9.83151 55.6913 9.08466L55.2292 9.46734C55.7414 10.0858 56.0083 10.8884 56.0083 11.9H56.6083ZM55.6928 9.08642C55.068 8.32025 54.2345 7.936 53.2203 7.936V8.536C54.062 8.536 54.7218 8.84508 55.2277 9.46558L55.6928 9.08642ZM53.2203 7.936C52.2061 7.936 51.3684 8.32005 50.7335 9.08429L51.195 9.46771C51.7121 8.84528 52.3784 8.536 53.2203 8.536V7.936ZM60.2256 17.5H59.9256V17.8H60.2256V17.5ZM60.2256 6.3V6H59.9256V6.3H60.2256ZM68.5136 7.852L68.3047 8.06734L68.3047 8.06734L68.5136 7.852ZM68.4976 15.932L68.2887 15.7167L68.2876 15.7177L68.4976 15.932ZM62.6256 8.3V8H62.3256V8.3H62.6256ZM62.6256 15.5H62.3256V15.8H62.6256V15.5ZM66.7696 14.508L66.5452 14.3089L66.5452 14.3089L66.7696 14.508ZM66.7696 9.276L66.5468 9.47689L66.5468 9.47689L66.7696 9.276ZM64.3056 17.2H60.2256V17.8H64.3056V17.2ZM60.5256 17.5V6.3H59.9256V17.5H60.5256ZM60.2256 6.6H64.3056V6H60.2256V6.6ZM64.3056 6.6C65.9805 6.6 67.3035 7.09613 68.3047 8.06734L68.7225 7.63666C67.5904 6.53853 66.108 6 64.3056 6V6.6ZM68.3047 8.06734C69.3063 9.03887 69.8136 10.3018 69.8136 11.884H70.4136C70.4136 10.1596 69.8543 8.73447 68.7225 7.63666L68.3047 8.06734ZM69.8136 11.884C69.8136 13.4653 69.3016 14.7339 68.2887 15.7167L68.7065 16.1473C69.8483 15.0394 70.4136 13.6094 70.4136 11.884H69.8136ZM68.2876 15.7177C67.2859 16.6995 65.9684 17.2 64.3056 17.2V17.8C66.0988 17.8 67.576 17.2552 68.7076 16.1463L68.2876 15.7177ZM62.3256 8.3V15.5H62.9256V8.3H62.3256ZM62.6256 15.8H64.3056V15.2H62.6256V15.8ZM64.3056 15.8C65.4292 15.8 66.3394 15.4451 66.994 14.7071L66.5452 14.3089C66.0265 14.8936 65.2941 15.2 64.3056 15.2V15.8ZM66.994 14.7071C67.64 13.979 67.9496 13.0277 67.9496 11.884H67.3496C67.3496 12.9163 67.0726 13.7144 66.5452 14.3089L66.994 14.7071ZM67.9496 11.884C67.9496 10.7405 67.64 9.79336 66.9924 9.07511L66.5468 9.47689C67.0725 10.06 67.3496 10.8515 67.3496 11.884H67.9496ZM66.9924 9.07511C66.3373 8.34852 65.4276 8 64.3056 8V8.6C65.2956 8.6 66.0286 8.90215 66.5468 9.47689L66.9924 9.07511ZM64.3056 8H62.6256V8.6H64.3056V8ZM78.4174 17.5V17.8H78.7174V17.5H78.4174ZM71.5694 17.5H71.2694V17.8H71.5694V17.5ZM71.5694 6.3V6H71.2694V6.3H71.5694ZM73.9694 6.3H74.2694V6H73.9694V6.3ZM73.9694 15.436H73.6694V15.736H73.9694V15.436ZM78.4174 15.436H78.7174V15.136H78.4174V15.436ZM78.4174 17.2H71.5694V17.8H78.4174V17.2ZM71.8694 17.5V6.3H71.2694V17.5H71.8694ZM71.5694 6.6H73.9694V6H71.5694V6.6ZM73.6694 6.3V15.436H74.2694V6.3H73.6694ZM73.9694 15.736H78.4174V15.136H73.9694V15.736ZM78.1174 15.436V17.5H78.7174V15.436H78.1174ZM78.9584 15.1H78.6584V15.4H78.9584V15.1ZM78.9584 13.196L78.7146 13.0212L78.6584 13.0996V13.196H78.9584ZM83.9024 6.3V6H83.7483L83.6586 6.1252L83.9024 6.3ZM86.7024 6.3H87.0024V6H86.7024V6.3ZM86.7024 13.18H86.4024V13.48H86.7024V13.18ZM88.2544 13.18H88.5544V12.88H88.2544V13.18ZM88.2544 15.1V15.4H88.5544V15.1H88.2544ZM86.7024 15.1V14.8H86.4024V15.1H86.7024ZM86.7024 17.5V17.8H87.0024V17.5H86.7024ZM84.4464 17.5H84.1464V17.8H84.4464V17.5ZM84.4464 15.1H84.7464V14.8H84.4464V15.1ZM84.4464 8.588H84.7464V7.65186L84.2023 8.41363L84.4464 8.588ZM81.1664 13.18L80.9223 13.0056L80.5834 13.48H81.1664V13.18ZM84.4464 13.18V13.48H84.7464V13.18H84.4464ZM79.2584 15.1V13.196H78.6584V15.1H79.2584ZM79.2022 13.3708L84.1462 6.4748L83.6586 6.1252L78.7146 13.0212L79.2022 13.3708ZM83.9024 6.6H86.7024V6H83.9024V6.6ZM86.4024 6.3V13.18H87.0024V6.3H86.4024ZM86.7024 13.48H88.2544V12.88H86.7024V13.48ZM87.9544 13.18V15.1H88.5544V13.18H87.9544ZM88.2544 14.8H86.7024V15.4H88.2544V14.8ZM86.4024 15.1V17.5H87.0024V15.1H86.4024ZM86.7024 17.2H84.4464V17.8H86.7024V17.2ZM84.7464 17.5V15.1H84.1464V17.5H84.7464ZM84.4464 14.8H78.9584V15.4H84.4464V14.8ZM84.2023 8.41363L80.9223 13.0056L81.4105 13.3544L84.6905 8.76237L84.2023 8.41363ZM81.1664 13.48H84.4464V12.88H81.1664V13.48ZM84.7464 13.18V8.588H84.1464V13.18H84.7464ZM90.4211 16.044L90.2013 16.2481L90.2035 16.2504L90.4211 16.044ZM90.4531 7.756L90.2377 7.54722L90.2366 7.54838L90.4531 7.756ZM97.8611 7.34L97.6661 7.56798L97.6677 7.56933L97.8611 7.34ZM99.4131 10.284V10.584H99.7522L99.7109 10.2474L99.4131 10.284ZM97.0131 10.284L96.7212 10.3533L96.776 10.584H97.0131V10.284ZM96.1171 8.796L95.9223 9.02425L95.9284 9.02917L96.1171 8.796ZM92.2291 9.26L91.9963 9.07082L91.996 9.07124L92.2291 9.26ZM92.2131 14.556L91.9781 14.7425L91.98 14.7448L92.2131 14.556ZM96.2931 15.004L96.4652 15.2498L96.4684 15.2475L96.2931 15.004ZM97.2531 13.324L97.55 13.367L97.5531 13.3456V13.324H97.2531ZM97.2531 13.18H97.5531V12.88H97.2531V13.18ZM94.4691 13.18H94.1691V13.48H94.4691V13.18ZM94.4691 11.276V10.976H94.1691V11.276H94.4691ZM99.4771 11.276H99.7771V10.976H99.4771V11.276ZM99.4771 17.5V17.8H99.7771V17.5H99.4771ZM97.7971 17.5L97.5018 17.5527L97.546 17.8H97.7971V17.5ZM97.5571 16.156L97.8525 16.1033L97.7317 15.4272L97.3178 15.9752L97.5571 16.156ZM94.2931 17.296C92.7644 17.296 91.5563 16.8049 90.6388 15.8376L90.2035 16.2504C91.2486 17.3524 92.6219 17.896 94.2931 17.896V17.296ZM90.641 15.8399C89.7319 14.8609 89.2651 13.5579 89.2651 11.9H88.6651C88.6651 13.6767 89.169 15.1364 90.2013 16.2481L90.641 15.8399ZM89.2651 11.9C89.2651 10.2325 89.7419 8.93133 90.6697 7.96362L90.2366 7.54838C89.1804 8.65001 88.6651 10.1115 88.6651 11.9H89.2651ZM90.6686 7.96477C91.6044 6.9991 92.8755 6.504 94.5171 6.504V5.904C92.7454 5.904 91.3072 6.44357 90.2377 7.54723L90.6686 7.96477ZM94.5171 6.504C95.8012 6.504 96.8434 6.86416 97.6661 7.56797L98.0561 7.11203C97.1082 6.30117 95.921 5.904 94.5171 5.904V6.504ZM97.6677 7.56933C98.4916 8.26419 98.9747 9.17491 99.1154 10.3206L99.7109 10.2474C99.5529 8.96109 99.0013 7.90914 98.0545 7.11067L97.6677 7.56933ZM99.4131 9.984H97.0131V10.584H99.4131V9.984ZM97.305 10.2147C97.1423 9.52917 96.8117 8.97229 96.3059 8.56283L95.9284 9.02917C96.3186 9.34504 96.5852 9.78016 96.7212 10.3533L97.305 10.2147ZM96.3119 8.56783C95.8113 8.14051 95.1838 7.936 94.4531 7.936V8.536C95.0664 8.536 95.5483 8.70482 95.9223 9.02417L96.3119 8.56783ZM94.4531 7.936C93.4405 7.936 92.6114 8.31372 91.9963 9.07082L92.462 9.44918C92.9561 8.84095 93.6097 8.536 94.4531 8.536V7.936ZM91.996 9.07124C91.3985 9.80923 91.1131 10.7614 91.1131 11.9H91.7131C91.7131 10.8626 91.9717 10.0548 92.4623 9.44876L91.996 9.07124ZM91.1131 11.9C91.1131 13.0471 91.3921 14.0041 91.9781 14.7425L92.4481 14.3695C91.9675 13.7639 91.7131 12.9502 91.7131 11.9H91.1131ZM91.98 14.7448C92.587 15.4946 93.4234 15.864 94.4531 15.864V15.264C93.5842 15.264 92.9273 14.9614 92.4463 14.3672L91.98 14.7448ZM94.4531 15.864C95.2038 15.864 95.8781 15.6607 96.4652 15.2498L96.1211 14.7582C95.6415 15.0939 95.0891 15.264 94.4531 15.264V15.864ZM96.4684 15.2475C97.0767 14.8095 97.4334 14.172 97.55 13.367L96.9562 13.281C96.8595 13.948 96.5762 14.4305 96.1178 14.7605L96.4684 15.2475ZM97.5531 13.324V13.18H96.9531V13.324H97.5531ZM97.2531 12.88H94.4691V13.48H97.2531V12.88ZM94.7691 13.18V11.276H94.1691V13.18H94.7691ZM94.4691 11.576H99.4771V10.976H94.4691V11.576ZM99.1771 11.276V17.5H99.7771V11.276H99.1771ZM99.4771 17.2H97.7971V17.8H99.4771V17.2ZM98.0925 17.4473L97.8525 16.1033L97.2618 16.2087L97.5018 17.5527L98.0925 17.4473ZM97.3178 15.9752C96.661 16.8443 95.6714 17.296 94.2931 17.296V17.896C95.8162 17.896 97.0025 17.3877 97.7965 16.3368L97.3178 15.9752ZM110.502 15.98L110.285 15.7722L110.502 15.98ZM102.502 15.98L102.718 15.7722L102.718 15.7722L102.502 15.98ZM102.502 7.82L102.718 8.0278L102.718 8.0278L102.502 7.82ZM104.246 9.276L104.015 9.08429L104.014 9.08466L104.246 9.276ZM104.246 14.54L104.013 14.7296L104.016 14.7335L104.246 14.54ZM108.742 14.54L108.973 14.7313L108.974 14.7296L108.742 14.54ZM108.742 9.276L108.509 9.46559L108.51 9.46734L108.742 9.276ZM110.285 8.0278C111.261 9.04346 111.754 10.3264 111.754 11.9H112.354C112.354 10.1883 111.812 8.7512 110.718 7.6122L110.285 8.0278ZM111.754 11.9C111.754 13.4736 111.261 14.7565 110.285 15.7722L110.718 16.1878C111.812 15.0488 112.354 13.6117 112.354 11.9H111.754ZM110.285 15.7722C109.313 16.7848 108.06 17.296 106.502 17.296V17.896C108.207 17.896 109.621 17.3298 110.718 16.1878L110.285 15.7722ZM106.502 17.296C104.943 17.296 103.69 16.7848 102.718 15.7722L102.285 16.1878C103.382 17.3298 104.796 17.896 106.502 17.896V17.296ZM102.718 15.7722C101.742 14.7565 101.25 13.4736 101.25 11.9H100.65C100.65 13.6117 101.191 15.0488 102.285 16.1878L102.718 15.7722ZM101.25 11.9C101.25 10.3264 101.742 9.04346 102.718 8.0278L102.285 7.6122C101.191 8.7512 100.65 10.1883 100.65 11.9H101.25ZM102.718 8.0278C103.69 7.01515 104.943 6.504 106.502 6.504V5.904C104.796 5.904 103.382 6.47018 102.285 7.6122L102.718 8.0278ZM106.502 6.504C108.06 6.504 109.313 7.01515 110.285 8.0278L110.718 7.6122C109.621 6.47018 108.207 5.904 106.502 5.904V6.504ZM104.014 9.08466C103.396 9.83151 103.098 10.7783 103.098 11.9H103.698C103.698 10.8884 103.964 10.0858 104.477 9.46734L104.014 9.08466ZM103.098 11.9C103.098 13.0219 103.396 13.9729 104.013 14.7296L104.478 14.3504C103.964 13.7204 103.698 12.9114 103.698 11.9H103.098ZM104.016 14.7335C104.652 15.4866 105.489 15.864 106.502 15.864V15.264C105.658 15.264 104.991 14.9587 104.475 14.3465L104.016 14.7335ZM106.502 15.864C107.514 15.864 108.347 15.4865 108.973 14.7313L108.51 14.3487C108.005 14.9589 107.345 15.264 106.502 15.264V15.864ZM108.974 14.7296C109.591 13.9729 109.89 13.0219 109.89 11.9H109.29C109.29 12.9114 109.023 13.7204 108.509 14.3504L108.974 14.7296ZM109.89 11.9C109.89 10.7783 109.591 9.83151 108.973 9.08466L108.51 9.46734C109.023 10.0858 109.29 10.8884 109.29 11.9H109.89ZM108.974 9.08642C108.349 8.32025 107.516 7.936 106.502 7.936V8.536C107.343 8.536 108.003 8.84508 108.509 9.46558L108.974 9.08642ZM106.502 7.936C105.487 7.936 104.65 8.32005 104.015 9.08429L104.476 9.46771C104.993 8.84528 105.66 8.536 106.502 8.536V7.936ZM120.355 17.5V17.8H120.655V17.5H120.355ZM113.507 17.5H113.207V17.8H113.507V17.5ZM113.507 6.3V6H113.207V6.3H113.507ZM115.907 6.3H116.207V6H115.907V6.3ZM115.907 15.436H115.607V15.736H115.907V15.436ZM120.355 15.436H120.655V15.136H120.355V15.436ZM120.355 17.2H113.507V17.8H120.355V17.2ZM113.807 17.5V6.3H113.207V17.5H113.807ZM113.507 6.6H115.907V6H113.507V6.6ZM115.607 6.3V15.436H116.207V6.3H115.607ZM115.907 15.736H120.355V15.136H115.907V15.736ZM120.055 15.436V17.5H120.655V15.436H120.055ZM121.632 17.5H121.332V17.8H121.632V17.5ZM121.632 6.3V6H121.332V6.3H121.632ZM129.92 7.852L129.711 8.06734L129.711 8.06734L129.92 7.852ZM129.904 15.932L129.695 15.7167L129.694 15.7177L129.904 15.932ZM124.032 8.3V8H123.732V8.3H124.032ZM124.032 15.5H123.732V15.8H124.032V15.5ZM128.176 14.508L127.951 14.3089L127.951 14.3089L128.176 14.508ZM128.176 9.276L127.953 9.47689L127.953 9.47689L128.176 9.276ZM125.712 17.2H121.632V17.8H125.712V17.2ZM121.932 17.5V6.3H121.332V17.5H121.932ZM121.632 6.6H125.712V6H121.632V6.6ZM125.712 6.6C127.387 6.6 128.71 7.09613 129.711 8.06734L130.129 7.63666C128.997 6.53853 127.514 6 125.712 6V6.6ZM129.711 8.06734C130.713 9.03887 131.22 10.3018 131.22 11.884H131.82C131.82 10.1596 131.261 8.73447 130.129 7.63666L129.711 8.06734ZM131.22 11.884C131.22 13.4653 130.708 14.7339 129.695 15.7167L130.113 16.1473C131.255 15.0394 131.82 13.6094 131.82 11.884H131.22ZM129.694 15.7177C128.692 16.6995 127.375 17.2 125.712 17.2V17.8C127.505 17.8 128.982 17.2552 130.114 16.1463L129.694 15.7177ZM123.732 8.3V15.5H124.332V8.3H123.732ZM124.032 15.8H125.712V15.2H124.032V15.8ZM125.712 15.8C126.835 15.8 127.746 15.4451 128.4 14.7071L127.951 14.3089C127.433 14.8936 126.7 15.2 125.712 15.2V15.8ZM128.4 14.7071C129.046 13.979 129.356 13.0277 129.356 11.884H128.756C128.756 12.9163 128.479 13.7144 127.951 14.3089L128.4 14.7071ZM129.356 11.884C129.356 10.7405 129.046 9.79336 128.399 9.07511L127.953 9.47689C128.479 10.06 128.756 10.8515 128.756 11.884H129.356ZM128.399 9.07511C127.744 8.34852 126.834 8 125.712 8V8.6C126.702 8.6 127.435 8.90215 127.953 9.47689L128.399 9.07511ZM125.712 8H124.032V8.6H125.712V8ZM36.96 35.5H36.66V35.8H36.96V35.5ZM36.96 24.3V24H36.66V24.3H36.96ZM45.248 25.852L45.0391 26.0673L45.0391 26.0673L45.248 25.852ZM45.232 33.932L45.0231 33.7167L45.022 33.7177L45.232 33.932ZM39.36 26.3V26H39.06V26.3H39.36ZM39.36 33.5H39.06V33.8H39.36V33.5ZM43.504 32.508L43.2796 32.3089L43.2796 32.3089L43.504 32.508ZM43.504 27.276L43.2812 27.4769L43.2812 27.4769L43.504 27.276ZM41.04 35.2H36.96V35.8H41.04V35.2ZM37.26 35.5V24.3H36.66V35.5H37.26ZM36.96 24.6H41.04V24H36.96V24.6ZM41.04 24.6C42.7149 24.6 44.0379 25.0961 45.0391 26.0673L45.4569 25.6367C44.3248 24.5385 42.8424 24 41.04 24V24.6ZM45.0391 26.0673C46.0407 27.0389 46.548 28.3018 46.548 29.884H47.148C47.148 28.1596 46.5886 26.7345 45.4569 25.6367L45.0391 26.0673ZM46.548 29.884C46.548 31.4653 46.036 32.7339 45.0231 33.7167L45.4409 34.1473C46.5827 33.0394 47.148 31.6094 47.148 29.884H46.548ZM45.022 33.7177C44.0203 34.6995 42.7028 35.2 41.04 35.2V35.8C42.8332 35.8 44.3104 35.2552 45.442 34.1463L45.022 33.7177ZM39.06 26.3V33.5H39.66V26.3H39.06ZM39.36 33.8H41.04V33.2H39.36V33.8ZM41.04 33.8C42.1636 33.8 43.0737 33.4451 43.7284 32.7071L43.2796 32.3089C42.7609 32.8936 42.0284 33.2 41.04 33.2V33.8ZM43.7284 32.7071C44.3743 31.979 44.684 31.0277 44.684 29.884H44.084C44.084 30.9163 43.807 31.7144 43.2796 32.3089L43.7284 32.7071ZM44.684 29.884C44.684 28.7405 44.3744 27.7934 43.7268 27.0751L43.2812 27.4769C43.8069 28.06 44.084 28.8515 44.084 29.884H44.684ZM43.7268 27.0751C43.0717 26.3485 42.162 26 41.04 26V26.6C42.03 26.6 42.763 26.9021 43.2812 27.4769L43.7268 27.0751ZM41.04 26H39.36V26.6H41.04V26ZM48.3038 35.5H48.0038V35.8H48.3038V35.5ZM48.3038 24.3V24H48.0038V24.3H48.3038ZM55.8238 24.3H56.1238V24H55.8238V24.3ZM55.8238 26.364V26.664H56.1238V26.364H55.8238ZM50.7038 26.364V26.064H50.4038V26.364H50.7038ZM50.7038 28.876H50.4038V29.176H50.7038V28.876ZM54.8638 28.876H55.1638V28.576H54.8638V28.876ZM54.8638 30.844V31.144H55.1638V30.844H54.8638ZM50.7038 30.844V30.544H50.4038V30.844H50.7038ZM50.7038 33.436H50.4038V33.736H50.7038V33.436ZM55.9998 33.436H56.2998V33.136H55.9998V33.436ZM55.9998 35.5V35.8H56.2998V35.5H55.9998ZM48.6038 35.5V24.3H48.0038V35.5H48.6038ZM48.3038 24.6H55.8238V24H48.3038V24.6ZM55.5238 24.3V26.364H56.1238V24.3H55.5238ZM55.8238 26.064H50.7038V26.664H55.8238V26.064ZM50.4038 26.364V28.876H51.0038V26.364H50.4038ZM50.7038 29.176H54.8638V28.576H50.7038V29.176ZM54.5638 28.876V30.844H55.1638V28.876H54.5638ZM54.8638 30.544H50.7038V31.144H54.8638V30.544ZM50.4038 30.844V33.436H51.0038V30.844H50.4038ZM50.7038 33.736H55.9998V33.136H50.7038V33.736ZM55.6998 33.436V35.5H56.2998V33.436H55.6998ZM55.9998 35.2H48.3038V35.8H55.9998V35.2ZM59.7964 35.5V35.8H60.0964V35.5H59.7964ZM57.4444 35.5H57.1444V35.8H57.4444V35.5ZM57.4444 24.3V24H57.1444V24.3H57.4444ZM59.6204 24.3L59.8692 24.1324L59.78 24H59.6204V24.3ZM64.3724 31.356L64.1235 31.5236L64.6724 32.3385V31.356H64.3724ZM64.3724 24.3V24H64.0724V24.3H64.3724ZM66.7404 24.3H67.0404V24H66.7404V24.3ZM66.7404 35.5V35.8H67.0404V35.5H66.7404ZM64.5484 35.5L64.2995 35.6676L64.3887 35.8H64.5484V35.5ZM59.7964 28.444L60.0452 28.2764L59.4964 27.4615V28.444H59.7964ZM59.7964 35.2H57.4444V35.8H59.7964V35.2ZM57.7444 35.5V24.3H57.1444V35.5H57.7444ZM57.4444 24.6H59.6204V24H57.4444V24.6ZM59.3715 24.4676L64.1235 31.5236L64.6212 31.1884L59.8692 24.1324L59.3715 24.4676ZM64.6724 31.356V24.3H64.0724V31.356H64.6724ZM64.3724 24.6H66.7404V24H64.3724V24.6ZM66.4404 24.3V35.5H67.0404V24.3H66.4404ZM66.7404 35.2H64.5484V35.8H66.7404V35.2ZM64.7972 35.3324L60.0452 28.2764L59.5475 28.6116L64.2995 35.6676L64.7972 35.3324ZM59.4964 28.444V35.5H60.0964V28.444H59.4964Z" fill="#1D2127"/>
</svg>
